<?xml version="1.0" encoding="utf-8"?>
<!-- Generator: Adobe Illustrator 28.3.0, SVG Export Plug-In . SVG Version: 6.00 Build 0)  -->
<svg version="1.1" id="Capa_1" xmlns="http://www.w3.org/2000/svg" xmlns:xlink="http://www.w3.org/1999/xlink" x="0px" y="0px"
	 viewBox="0 0 90 120" style="enable-background:new 0 0 90 120;" xml:space="preserve">
<path d="M68.76,88.75c-2.38,1.63-6.07,2.93-8.06,2.84c-2.2-0.1-4.35-0.46-6.41-1.08c-4.6-1.39-8.91-4.07-13.17-8.21
	c-3.15-3.06-6.28-6.91-9.84-12.12c-0.68-0.99-1.38-2.05-2.08-3.17c-4.8-7.62-12.16-21.91-7.58-31.97c0.92-2.02,2.3-3.82,4.12-5.37
	c0.52-0.45,1.09-0.89,1.7-1.31l4.5-3.11l5.89,8.61c0.6,0.87,0.82,1.93,0.62,2.98c-0.2,1.05-0.79,1.96-1.66,2.55l-1.83,1.25
	c-3.83,2.62-5.3,7.6-3.5,11.84c4.06,9.55,9.74,17.65,17.35,24.79c2.67,2.49,7.13,2.82,10.17,0.74l2.89-1.98
	c0.32-0.22,0.68-0.4,1.06-0.51c1.65-0.51,3.49,0.13,4.47,1.55l5.88,8.59L68.76,88.75z M78.21,83.35l-6.37-9.31
	c-2.29-3.35-6.61-4.86-10.5-3.65c-0.9,0.28-1.74,0.69-2.51,1.21l-2.89,1.97c-0.95,0.65-2.63,0.54-3.46-0.23
	c-7.06-6.61-12.32-14.12-16.08-22.97c-0.8-1.89-0.14-4.12,1.59-5.3l1.83-1.25c2.06-1.41,3.45-3.54,3.91-6
	c0.46-2.46-0.06-4.95-1.47-7.01l-6.37-9.31c-0.34-0.49-0.99-1.16-2.16-1.52c-1.52-0.48-3.27-0.21-4.65,0.73l-4.68,3.21
	c-0.78,0.53-1.51,1.1-2.17,1.67c-2.4,2.05-4.26,4.48-5.5,7.21c-5.34,11.74,1.36,26.64,7.92,37.06c0.74,1.18,1.47,2.29,2.19,3.34
	c3.78,5.52,7.13,9.63,10.54,12.94c4.89,4.75,9.92,7.86,15.37,9.5c1.07,0.32,2.16,0.59,3.26,0.8c1.47,0.27,2.96,0.45,4.46,0.51
	c3.6,0.16,8.43-1.77,11.35-3.77l4.69-3.21c1.37-0.94,2.26-2.46,2.36-4.07C78.92,84.92,78.7,84.06,78.21,83.35"/>
</svg>
