<?xml version="1.0" encoding="utf-8"?>
<!-- Generator: Adobe Illustrator 28.3.0, SVG Export Plug-In . SVG Version: 6.00 Build 0)  -->
<svg version="1.1" id="Capa_1" xmlns="http://www.w3.org/2000/svg" xmlns:xlink="http://www.w3.org/1999/xlink" x="0px" y="0px"
	 viewBox="0 0 90 120" style="enable-background:new 0 0 90 120;" xml:space="preserve">
<g>
	<g>
		<g>
			<g>
				<path d="M58.38,96.25c0.26,0.05,0.51,0.11,0.77,0.16c2.73,0.57,5.3,1.1,7.65,2.37c2.23,1.21,3.7,2.83,4.14,4.57
					c0.35,1.39,0.03,2.84-0.95,4.31c-2.52,3.8-11.88,6.35-23.29,6.35c-11.66,0-21.39-2.73-23.67-6.64c-1.7-2.91-0.18-6.01,1.95-7.66
					c1.79-1.39,7.67-3.45,9.85-3.45c0.08,0,0.14,0,0.19,0.01c0.18,0.32,0.47,0.89,0.72,1.39c-0.09,0.02-0.18,0.03-0.28,0.05
					c-3.08,0.56-6.57,1.2-9.12,2.92c-1.93,1.31-2.82,2.75-2.64,4.29c0.33,2.83,4.29,4.61,5.97,5.25c3.83,1.44,10.22,2.3,17.07,2.3
					c8.36,0,15.37-1.23,19.24-3.38c2.47-1.37,3.71-2.91,3.69-4.58c-0.02-1.71-1.36-3.26-3.96-4.61c-2.22-1.16-5.44-1.89-8-2.18
					L58.38,96.25 M58.24,95.2c-0.3,0.13-0.3,0.13-0.59,0.25c-0.72,1.56-0.72,1.56-1.44,3.13c2.75,0.14,6.61,0.94,9.04,2.2
					c4.35,2.26,4.68,4.98,0.25,7.43c-4.04,2.24-11.46,3.25-18.76,3.25c-6.5,0-12.9-0.8-16.72-2.24c-3.73-1.4-8.08-4.42-3.13-7.77
					c2.78-1.88,6.98-2.41,10.22-3.04c0.11-0.12-1.31-2.85-1.44-2.96c-0.16-0.13-0.46-0.19-0.86-0.19c-2.4,0-8.51,2.14-10.46,3.66
					c-2.75,2.13-4.05,5.78-2.2,8.95c2.77,4.75,13.66,7.13,24.53,7.13c10.57,0,21.11-2.26,24.12-6.8c2.85-4.3,0.47-8.13-3.55-10.31
					C64.46,96.37,61.33,95.85,58.24,95.2L58.24,95.2z"/>
			</g>
		</g>
		<g>
			<path d="M46.65,8c8.02,0,15.58,2.91,21.3,8.19c5.42,5.01,9.03,12.34,9.65,19.62c0.32,3.81,0.05,7.42-0.82,10.73
				c-1.04,3.97-10.26,22.53-17.67,37.44c-4.32,8.69-8.04,16.19-9.64,19.74c-1.96,4.12-2.72,4.55-2.88,4.59
				c-0.48-0.13-1.48-2.1-2.28-3.68c-0.26-0.51-0.53-1.05-0.83-1.61c-5.04-9.68-9.8-19.73-14.4-29.46
				c-3.68-7.77-7.49-15.81-11.42-23.62c-1.75-4.57-2.33-8.65-1.95-13.62c0.58-7.53,3.61-13.88,9.49-19.96
				C30.94,10.97,38.55,8,46.65,8 M47.03,50.09c5.5,0,10.43-2.83,12.85-7.39c2.42-4.56,2.33-9.84-0.25-14.12
				c-2.66-4.42-7.44-7.06-12.8-7.06c0,0,0,0,0,0c-0.33,0-0.66,0.01-0.99,0.03c-5.35,0.32-9.94,3.74-11.99,8.93
				c-2.13,5.41-1.06,11.28,2.79,15.31C39.3,48.57,42.99,50.09,47.03,50.09 M46.65,7c-8.01,0-16.01,2.87-22.12,8.62
				c-5.69,5.88-9.16,12.34-9.8,20.61c-0.39,5.08,0.2,9.34,2.03,14.11c8.85,17.58,16.76,35.68,25.85,53.13
				c1.78,3.42,2.76,5.83,3.97,5.83c0.95,0,2.05-1.49,3.8-5.16c4.43-9.87,25.71-51.01,27.37-57.36c0.94-3.61,1.16-7.35,0.84-11.07
				c-0.64-7.54-4.4-15.13-9.97-20.27C62.53,9.82,54.59,7,46.65,7L46.65,7z M47.03,49.09c-3.54,0-7.09-1.3-9.66-3.99
				c-7.5-7.85-2.51-21.9,8.53-22.55c0.31-0.02,0.63-0.03,0.93-0.03c10.42,0,17.07,10.47,12.16,19.71
				C56.61,46.72,51.82,49.09,47.03,49.09L47.03,49.09z"/>
		</g>
	</g>
</g>
</svg>
