<?xml version="1.0" encoding="utf-8"?>
<!-- Generator: Adobe Illustrator 28.3.0, SVG Export Plug-In . SVG Version: 6.00 Build 0)  -->
<svg version="1.1" id="Capa_1" xmlns="http://www.w3.org/2000/svg" xmlns:xlink="http://www.w3.org/1999/xlink" x="0px" y="0px"
	 viewBox="0 0 90 120" style="enable-background:new 0 0 90 120;" xml:space="preserve">
<style type="text/css">
	.st0{fill-rule:evenodd;clip-rule:evenodd;}
</style>
<path d="M68.8,58.27c-2.77,5.62-6.52,11.21-10.36,16.23c-3.65,4.73-7.54,9.27-11.66,13.59c-4.13-4.32-8.02-8.86-11.66-13.59
	c-3.84-5.02-7.59-10.62-10.36-16.23c-2.8-5.67-4.41-10.99-4.41-15.55c0-14.6,11.84-26.44,26.44-26.44s26.44,11.84,26.44,26.44
	C73.21,47.28,71.6,52.6,68.8,58.27 M46.78,95.6c0,0,31.72-30.06,31.72-52.87C78.5,25.2,64.3,11,46.78,11S15.05,25.2,15.05,42.72
	C15.05,65.53,46.78,95.6,46.78,95.6"/>
<path d="M46.78,53.3c-5.84,0-10.57-4.73-10.57-10.57s4.73-10.57,10.57-10.57s10.57,4.73,10.57,10.57S52.62,53.3,46.78,53.3
	 M46.78,58.59c8.76,0,15.86-7.1,15.86-15.86s-7.1-15.86-15.86-15.86s-15.86,7.1-15.86,15.86S38.01,58.59,46.78,58.59"/>
<path class="st0" d="M39.93,93.56c0.21,1.24-0.63,2.41-1.87,2.61c-3.24,0.54-5.82,1.34-7.52,2.24c-0.63,0.3-1.2,0.71-1.68,1.2
	c-0.11,0.12-0.2,0.26-0.26,0.41v0.01l0.01,0.04l0.07,0.15c0.18,0.26,0.4,0.49,0.66,0.68c0.75,0.59,1.98,1.23,3.7,1.8
	c3.41,1.14,8.27,1.88,13.74,1.88s10.33-0.74,13.74-1.88c1.72-0.57,2.95-1.2,3.7-1.8c0.26-0.19,0.48-0.42,0.66-0.68l0.07-0.15
	l0.01-0.04v-0.02c-0.06-0.15-0.15-0.29-0.26-0.41c-0.49-0.5-1.05-0.9-1.68-1.2c-1.71-0.9-4.29-1.7-7.52-2.24
	c-1.24-0.17-2.12-1.31-1.95-2.56c0.17-1.24,1.31-2.12,2.56-1.95c0.05,0.01,0.09,0.01,0.14,0.02c3.5,0.58,6.6,1.49,8.89,2.7
	c2.1,1.1,4.37,2.92,4.37,5.65c0,1.94-1.18,3.42-2.47,4.44c-1.32,1.04-3.09,1.88-5.07,2.54c-3.99,1.33-9.36,2.11-15.18,2.11
	s-11.19-0.78-15.18-2.11c-1.98-0.66-3.75-1.5-5.07-2.54c-1.29-1.02-2.47-2.5-2.47-4.44c0-2.72,2.27-4.54,4.37-5.65
	c2.3-1.21,5.39-2.12,8.89-2.7C38.55,91.48,39.72,92.32,39.93,93.56"/>
</svg>
