<?xml version="1.0" encoding="utf-8"?>
<!-- Generator: Adobe Illustrator 28.3.0, SVG Export Plug-In . SVG Version: 6.00 Build 0)  -->
<svg version="1.1" id="Capa_1" xmlns="http://www.w3.org/2000/svg" xmlns:xlink="http://www.w3.org/1999/xlink" x="0px" y="0px"
	 viewBox="0 0 90 102" style="enable-background:new 0 0 90 102;" xml:space="preserve">
<path d="M72.25,27.23h-51.5c-3.44,0-6.25,2.8-6.25,6.25v32.67c0,3.44,2.8,6.25,6.25,6.25h51.5c3.44,0,6.25-2.8,6.25-6.25V33.48
	C78.5,30.04,75.7,27.23,72.25,27.23z M68.38,32.37L46.5,49.75L24.62,32.37H68.38z M72.25,67.26h-51.5c-0.61,0-1.11-0.5-1.11-1.11
	V34.97L44.9,55.04c0.47,0.37,1.03,0.56,1.6,0.56c0.57,0,1.13-0.18,1.6-0.56l25.27-20.06v31.18C73.36,66.76,72.86,67.26,72.25,67.26z
	"/>
</svg>
