<svg width="24" height="24" viewBox="0 0 24 24" fill="none" xmlns="http://www.w3.org/2000/svg">
<mask id="mask0_2338_377" style="mask-type:alpha" maskUnits="userSpaceOnUse" x="0" y="0" width="24" height="24">
<rect width="24" height="24" fill="#D9D9D9"/>
</mask>
<g mask="url(#mask0_2338_377)">
<path d="M6.21275 14.7128H14.5303L15.7865 13.4565H6.21275V14.7128ZM6.21275 10.4962H11.6013V9.23975H6.21275V10.4962ZM3.7565 6.7565V17.2332H12.0098L10.743 18.5H2.5V5.5H21.5V8.9995H20.2435V6.7565H3.7565ZM22.2165 11.9783C22.2935 12.0533 22.332 12.1447 22.332 12.2525C22.332 12.3605 22.2935 12.452 22.2165 12.527L21.3578 13.386L20.332 12.3603L21.213 11.4793C21.289 11.4034 21.3718 11.3655 21.4613 11.3655C21.5508 11.3655 21.6346 11.4039 21.7128 11.4808L22.2165 11.9783ZM13.2758 20.4615V19.436L19.7308 12.9808L20.7563 14.0065L14.3013 20.4615H13.2758Z" fill="#1C1B1F"/>
</g>
</svg>
