<svg width="24" height="24" viewBox="0 0 24 24" fill="none" xmlns="http://www.w3.org/2000/svg">
<mask id="mask0_2338_19045" style="mask-type:alpha" maskUnits="userSpaceOnUse" x="0" y="0" width="24" height="24">
<rect width="24" height="24" fill="#D9D9D9"/>
</mask>
<g mask="url(#mask0_2338_19045)">
<path d="M7.0745 20.5C6.646 20.5 6.27817 20.3464 5.971 20.0392C5.66383 19.7321 5.51025 19.3642 5.51025 18.9357V5.63448H4.5V4.37823H8.85125V3.61548H15.1488V4.37823H19.5V5.63448H18.4898V18.9357C18.4898 19.3656 18.3365 19.7337 18.03 20.0402C17.7235 20.3467 17.3553 20.5 16.9255 20.5H7.0745ZM17.2333 5.63448H6.76675V18.9357C6.76675 19.0256 6.79667 19.0993 6.8565 19.157C6.91633 19.2146 6.989 19.2435 7.0745 19.2435H16.9255C17.0025 19.2435 17.0731 19.2115 17.1373 19.1475C17.2013 19.0833 17.2333 19.0127 17.2333 18.9357V5.63448ZM9.4885 17.1692H10.7448V7.69223H9.4885V17.1692ZM13.2553 17.1692H14.5115V7.69223H13.2553V17.1692Z" fill="#1C1B1F"/>
</g>
</svg>
