<svg width="24" height="24" viewBox="0 0 24 24" fill="none" xmlns="http://www.w3.org/2000/svg">
<mask id="mask0_2338_19044" style="mask-type:alpha" maskUnits="userSpaceOnUse" x="0" y="0" width="24" height="24">
<rect width="24" height="24" fill="#D9D9D9"/>
</mask>
<g mask="url(#mask0_2338_19044)">
<path d="M5.06425 20.5C4.63442 20.5 4.26625 20.3468 3.95975 20.0403C3.65325 19.7338 3.5 19.3656 3.5 18.9358V5.0643C3.5 4.63446 3.65325 4.2663 3.95975 3.9598C4.26625 3.6533 4.63442 3.50005 5.06425 3.50005H14.302L13.0455 4.75655H5.06425C4.98725 4.75655 4.91667 4.78855 4.8525 4.85255C4.7885 4.91671 4.7565 4.9873 4.7565 5.0643V18.9358C4.7565 19.0128 4.7885 19.0834 4.8525 19.1475C4.91667 19.2115 4.98725 19.2435 5.06425 19.2435H18.9357C19.0127 19.2435 19.0833 19.2115 19.1475 19.1475C19.2115 19.0834 19.2435 19.0128 19.2435 18.9358V10.864L20.5 9.6078V18.9358C20.5 19.3656 20.3467 19.7338 20.0402 20.0403C19.7337 20.3468 19.3656 20.5 18.9357 20.5H5.06425ZM9.5 14.5V11.0673L18.7455 1.8218C18.8717 1.6958 19.0118 1.60513 19.166 1.5498C19.3203 1.49446 19.4778 1.4668 19.6385 1.4668C19.7962 1.4668 19.9522 1.49613 20.1067 1.5548C20.2612 1.61363 20.4019 1.70505 20.5287 1.82905L22.1127 3.40905C22.2396 3.53888 22.3356 3.68271 22.4007 3.84055C22.4661 3.99855 22.4988 4.15855 22.4988 4.32055C22.4988 4.48255 22.4697 4.6418 22.4117 4.7983C22.3537 4.9548 22.2605 5.09771 22.132 5.22705L12.8845 14.5H9.5ZM10.7565 13.2435H12.3577L18.8442 6.75705L18.0417 5.9583L17.1987 5.1468L10.7565 11.5788V13.2435Z" fill="#1C1B1F"/>
</g>
</svg>
