<svg width="24" height="24" viewBox="0 0 24 24" fill="none" xmlns="http://www.w3.org/2000/svg">
<mask id="mask0_2338_1056" style="mask-type:alpha" maskUnits="userSpaceOnUse" x="0" y="0" width="24" height="24">
<rect width="24" height="24" fill="#D9D9D9"/>
</mask>
<g mask="url(#mask0_2338_1056)">
<path d="M9.19225 2.5065V1.25H14.8077V2.5065H9.19225ZM11.3717 13.6488H12.6283V8.15525H11.3717V13.6488ZM12 21.4897C10.8308 21.4897 9.73083 21.2656 8.7 20.8173C7.66917 20.3689 6.76792 19.7599 5.99625 18.9903C5.22442 18.2208 4.61542 17.3195 4.16925 16.2865C3.72308 15.2537 3.5 14.1537 3.5 12.9865C3.5 11.8195 3.72308 10.7206 4.16925 9.68975C4.61542 8.65892 5.22442 7.75767 5.99625 6.986C6.76792 6.21417 7.66917 5.60517 8.7 5.159C9.73083 4.71283 10.8308 4.48975 12 4.48975C13.044 4.48975 14.0377 4.66925 14.981 5.02825C15.9245 5.38725 16.7778 5.89242 17.541 6.54375L18.723 5.35525L19.6077 6.23975L18.4192 7.42825C19.0389 8.13758 19.5406 8.95608 19.9242 9.88375C20.3081 10.8112 20.5 11.8466 20.5 12.9897C20.5 14.1548 20.2769 15.2537 19.8307 16.2865C19.3846 17.3195 18.7756 18.2208 18.0037 18.9903C17.2321 19.7599 16.3308 20.3689 15.3 20.8173C14.2692 21.2656 13.1692 21.4897 12 21.4897ZM11.999 20.2333C14.0073 20.2333 15.7168 19.5282 17.1275 18.1182C18.5382 16.7081 19.2435 14.9989 19.2435 12.9908C19.2435 10.9824 18.5385 9.27292 17.1285 7.86225C15.7183 6.45158 14.0092 5.74625 12.001 5.74625C9.99267 5.74625 8.28317 6.45125 6.8725 7.86125C5.46183 9.27142 4.7565 10.9806 4.7565 12.9888C4.7565 14.9971 5.4615 16.7066 6.8715 18.1173C8.28167 19.5279 9.99083 20.2333 11.999 20.2333Z" fill="#1C1B1F"/>
</g>
</svg>
