<svg width="24" height="24" viewBox="0 0 24 24" fill="none" xmlns="http://www.w3.org/2000/svg">
<path d="M15.1053 5.048C14.8198 5.048 14.5786 4.94942 14.3818 4.75225C14.1849 4.55508 14.0865 4.31375 14.0865 4.02825C14.0865 3.74275 14.1851 3.50158 14.3822 3.30475C14.5794 3.10808 14.8208 3.00975 15.1062 3.00975C15.3918 3.00975 15.6329 3.10833 15.8298 3.3055C16.0266 3.5025 16.125 3.74383 16.125 4.0295C16.125 4.315 16.0264 4.55617 15.8292 4.753C15.6321 4.94967 15.3908 5.048 15.1053 5.048ZM15.0763 20.9902C14.7907 20.9902 14.5497 20.8917 14.353 20.6945C14.1562 20.4975 14.0577 20.2562 14.0577 19.9705C14.0577 19.685 14.1563 19.4438 14.3535 19.247C14.5507 19.0503 14.792 18.952 15.0775 18.952C15.363 18.952 15.6042 19.0506 15.801 19.2478C15.9977 19.4449 16.096 19.6863 16.096 19.9718C16.096 20.2572 15.9975 20.4984 15.8005 20.6952C15.6033 20.8919 15.3619 20.9902 15.0763 20.9902ZM19.0763 8.43275C18.7908 8.43275 18.5497 8.33417 18.353 8.137C18.1562 7.93983 18.0577 7.6985 18.0577 7.413C18.0577 7.1275 18.1563 6.88633 18.3535 6.6895C18.5507 6.49267 18.792 6.39425 19.0775 6.39425C19.363 6.39425 19.6042 6.49283 19.801 6.69C19.9977 6.88717 20.096 7.1285 20.096 7.414C20.096 7.6995 19.9975 7.94067 19.8005 8.1375C19.6033 8.33433 19.3619 8.43275 19.0763 8.43275ZM19.0475 17.6345C18.762 17.6345 18.5208 17.5359 18.324 17.3387C18.1272 17.1418 18.0288 16.9004 18.0288 16.6147C18.0288 16.3292 18.1273 16.0881 18.3245 15.8913C18.5217 15.6946 18.763 15.5962 19.0485 15.5962C19.3342 15.5962 19.5753 15.6948 19.772 15.892C19.9688 16.089 20.0673 16.3303 20.0673 16.616C20.0673 16.9015 19.9687 17.1427 19.7715 17.3395C19.5743 17.5362 19.333 17.6345 19.0475 17.6345ZM20.4803 13.0192C20.1948 13.0192 19.9536 12.9207 19.7568 12.7235C19.5599 12.5263 19.4615 12.285 19.4615 11.9995C19.4615 11.714 19.5601 11.4728 19.7572 11.276C19.9544 11.0792 20.1958 10.9808 20.4813 10.9808C20.7668 10.9808 21.0079 11.0793 21.2048 11.2765C21.4016 11.4737 21.5 11.715 21.5 12.0005C21.5 12.286 21.4014 12.5272 21.2043 12.724C21.0071 12.9208 20.7658 13.0192 20.4803 13.0192ZM12 21.5C10.6872 21.5 9.45267 21.2507 8.2965 20.752C7.14033 20.2533 6.13467 19.5766 5.2795 18.7218C4.42433 17.8669 3.74725 16.8617 3.24825 15.706C2.74942 14.5503 2.5 13.3156 2.5 12.0017C2.5 10.6877 2.74942 9.45267 3.24825 8.2965C3.74692 7.14033 4.42375 6.13467 5.27875 5.2795C6.13375 4.42433 7.13917 3.74725 8.295 3.24825C9.45083 2.74942 10.6858 2.5 12 2.5V4C9.76667 4 7.875 4.775 6.325 6.325C4.775 7.875 4 9.76667 4 12C4 14.2333 4.775 16.125 6.325 17.675C7.875 19.225 9.76667 20 12 20V21.5ZM12 13.75C11.5142 13.75 11.101 13.5798 10.7605 13.2395C10.4202 12.899 10.25 12.4858 10.25 12C10.25 11.8975 10.2574 11.7972 10.2723 11.699C10.2869 11.601 10.3173 11.5071 10.3635 11.4173L8.35575 9.4L9.4 8.35575L11.4173 10.3635C11.4904 10.334 11.6847 10.2962 12 10.25C12.4858 10.25 12.899 10.4202 13.2395 10.7605C13.5798 11.101 13.75 11.5142 13.75 12C13.75 12.4858 13.5798 12.899 13.2395 13.2395C12.899 13.5798 12.4858 13.75 12 13.75Z" fill="#373737"/>
</svg>
