<svg width="34" height="38" viewBox="0 0 34 38" fill="none" xmlns="http://www.w3.org/2000/svg">
<mask id="mask0_4698_4217" style="mask-type:alpha" maskUnits="userSpaceOnUse" x="1" y="6" width="33" height="32">
<rect x="1.58301" y="6.33301" width="31.6668" height="31.6668" fill="#D9D9D9"/>
</mask>
<g mask="url(#mask0_4698_4217)">
<path d="M17.4168 34.8025C16.7503 34.8025 16.1755 34.5716 15.6926 34.1098C15.2097 33.648 14.9471 33.0838 14.9049 32.4173H19.9287C19.8865 33.0838 19.6239 33.648 19.141 34.1098C18.6581 34.5716 18.0834 34.8025 17.4168 34.8025ZM12.4689 30.5902V28.611H22.3648V30.5902H12.4689ZM12.6717 26.7842C11.2898 25.9248 10.1959 24.8019 9.38994 23.4156C8.58376 22.0296 8.18066 20.5135 8.18066 18.8675C8.18066 16.2963 9.07723 14.1142 10.8704 12.321C12.6635 10.5279 14.8456 9.63135 17.4168 9.63135C19.988 9.63135 22.1701 10.5279 23.9633 12.321C25.7564 14.1142 26.653 16.2963 26.653 18.8675C26.653 20.5135 26.2499 22.0296 25.4437 23.4156C24.6377 24.8019 23.5438 25.9248 22.1619 26.7842H12.6717ZM13.2605 24.805H21.5731C22.5627 24.1013 23.3269 23.2327 23.8656 22.1991C24.4044 21.1655 24.6738 20.055 24.6738 18.8675C24.6738 16.8443 23.9701 15.1291 22.5627 13.7216C21.1553 12.3142 19.44 11.6105 17.4168 11.6105C15.3937 11.6105 13.6784 12.3142 12.271 13.7216C10.8635 15.1291 10.1598 16.8443 10.1598 18.8675C10.1598 20.055 10.4292 21.1655 10.968 22.1991C11.5068 23.2327 12.271 24.1013 13.2605 24.805Z" fill="white"/>
</g>
<path d="M0 19.7003V17.3253H5.84609V19.7003H0ZM8.25752 11.5097L4.10441 7.34116L5.75782 5.66361L9.91092 9.85629L8.25752 11.5097ZM15.742 7.42943V0H18.117V7.42943H15.742ZM25.5709 11.4943L23.9175 9.82581L28.0861 5.68775L29.7636 7.3562L25.5709 11.4943ZM28.0129 19.7003V17.3253H33.8589V19.7003H28.0129Z" fill="white"/>
</svg>
