<svg width="29" height="27" viewBox="0 0 29 27" fill="none" xmlns="http://www.w3.org/2000/svg">
<path d="M12.4447 1.06579V15.2763L15.2892 12.7895H26.6672L28.445 12.4342V2.13157L28.0894 0.710516C23.5856 0.710519 14.4109 0.355257 13.5114 0.355263C12.4447 0.35527 12.4447 0.710523 12.4447 1.06579Z" fill="#003B8D"/>
<path d="M0.355563 25.5789V17.0526H7.46681C9.24463 17.7632 13.0136 19.3263 13.8669 19.8947C14.7203 20.4632 14.6966 21.5526 14.5781 22.0263C15.5262 22.0263 17.707 22.0974 18.8448 22.3816C19.9826 22.6658 20.03 23.6842 19.9115 24.1579L12.8003 26.6447L4.26675 24.1579V25.5789H0.355563Z" fill="#003B8D"/>
<path d="M16.0054 10.0214C16.2321 10.0214 16.4217 9.94627 16.5743 9.79603C16.727 9.6458 16.8034 9.46049 16.8034 9.24011C16.8034 9.01987 16.727 8.83315 16.5743 8.67996C16.4217 8.52691 16.2335 8.45039 16.0097 8.45039C15.786 8.45039 15.5964 8.52691 15.4408 8.67996C15.2854 8.83315 15.2077 9.01846 15.2077 9.23589C15.2077 9.45909 15.2854 9.6458 15.4408 9.79603C15.5964 9.94627 15.7846 10.0214 16.0054 10.0214ZM16.0054 7.45976C16.2321 7.45976 16.4217 7.38464 16.5743 7.23441C16.727 7.08403 16.8034 6.89872 16.8034 6.67848C16.8034 6.45809 16.727 6.27138 16.5743 6.11833C16.4217 5.96514 16.2335 5.88854 16.0097 5.88854C15.786 5.88854 15.5964 5.96514 15.4408 6.11833C15.2854 6.27138 15.2077 6.45668 15.2077 6.67426C15.2077 6.89731 15.2854 7.08403 15.4408 7.23441C15.5964 7.38464 15.7846 7.45976 16.0054 7.45976ZM16.0054 4.89813C16.2321 4.89813 16.4217 4.82294 16.5743 4.67256C16.727 4.52233 16.8034 4.33702 16.8034 4.11663C16.8034 3.89639 16.727 3.70967 16.5743 3.55648C16.4217 3.40344 16.2335 3.32692 16.0097 3.32692C15.786 3.32692 15.5964 3.40344 15.4408 3.55648C15.2854 3.70967 15.2077 3.89498 15.2077 4.11241C15.2077 4.33561 15.2854 4.52233 15.4408 4.67256C15.5964 4.82294 15.7846 4.89813 16.0054 4.89813ZM18.7322 9.73964H22.9121V8.73213H18.7322V9.73964ZM18.7322 7.17802H25.6316V6.17028H18.7322V7.17802ZM18.7322 4.61617H25.6316V3.60866H18.7322V4.61617ZM11.8636 16.4634V1.28081C11.8636 0.932543 11.992 0.632007 12.2487 0.379205C12.5055 0.126402 12.8107 0 13.1644 0H27.6992C28.0529 0 28.3581 0.126402 28.6149 0.379205C28.8716 0.632007 29 0.932543 29 1.28081V12.0402C29 12.3884 28.8716 12.689 28.6149 12.9418C28.3581 13.1946 28.0529 13.321 27.6992 13.321H15.055L11.8636 16.4634ZM14.6075 12.3133H27.6992C27.7685 12.3133 27.8321 12.2848 27.89 12.228C27.9477 12.171 27.9766 12.1084 27.9766 12.0402V1.28081C27.9766 1.21258 27.9477 1.14997 27.89 1.09299C27.8321 1.03615 27.7685 1.00773 27.6992 1.00773H13.1644C13.0951 1.00773 13.0315 1.03615 12.9737 1.09299C12.9159 1.14997 12.8871 1.21258 12.8871 1.28081V14.1065L14.6075 12.3133Z" fill="white"/>
<path d="M4.69361 23.3588L12.7235 25.765L19.0724 23.7618C19.0857 23.3808 18.9712 23.0831 18.729 22.8685C18.4868 22.654 18.2037 22.5468 17.8797 22.5468H12.6946C12.387 22.5468 12.0784 22.5267 11.7688 22.4866C11.4592 22.4464 11.1523 22.3729 10.848 22.2661L8.46046 21.5302L8.8614 20.3213L11.1974 21.1554C11.4261 21.2449 11.6742 21.3036 11.9414 21.3316C12.2087 21.3597 12.5065 21.3705 12.8347 21.3639H13.8925C13.8925 20.9788 13.7853 20.6583 13.571 20.4023C13.3567 20.1463 13.0907 19.9555 12.773 19.8299L7.08917 17.6664C7.06268 17.6596 7.04282 17.6546 7.02957 17.6513C7.01633 17.648 6.99981 17.6463 6.98003 17.6463H4.69361V23.3588ZM0 26.0256V16.4634H6.94237C7.03525 16.4634 7.1246 16.4727 7.21043 16.4913C7.29626 16.5101 7.38149 16.5321 7.46611 16.5575L13.16 18.7051C13.6946 18.9015 14.1534 19.229 14.5364 19.6876C14.9195 20.146 15.111 20.7048 15.111 21.3639H17.8797C18.6322 21.3639 19.2456 21.6319 19.72 22.1678C20.1946 22.7039 20.4318 23.3382 20.4318 24.0707V24.648L12.8326 27L4.69361 24.61V26.0256H0ZM1.17082 24.8425H3.49698V17.6463H1.17082V24.8425Z" fill="white"/>
</svg>
