<svg width="36" height="17" viewBox="0 0 36 17" fill="none" xmlns="http://www.w3.org/2000/svg">
<path d="M0 17V15.3188C0 14.328 0.518739 13.5131 1.55622 12.874C2.5937 12.2349 3.94604 11.9154 5.61326 11.9154C5.88065 11.9154 6.15574 11.9248 6.43852 11.9438C6.72157 11.9624 7.00657 11.994 7.29352 12.0386C7.11483 12.4766 6.97826 12.9155 6.88383 13.3553C6.78965 13.7954 6.74257 14.2461 6.74257 14.7073V17H0ZM9.3913 17V14.7697C9.3913 14.0103 9.597 13.3163 10.0084 12.6875C10.4198 12.0584 11.0127 11.51 11.7873 11.0423C12.5618 10.5744 13.4769 10.2235 14.5327 9.98962C15.5881 9.75551 16.742 9.63846 17.9941 9.63846C19.2703 9.63846 20.4361 9.75551 21.4916 9.98962C22.5471 10.2235 23.4621 10.5744 24.2366 11.0423C25.0114 11.51 25.6004 12.0584 26.0037 12.6875C26.407 13.3163 26.6087 14.0103 26.6087 14.7697V17H9.3913ZM29.2574 17V14.7121C29.2574 14.2263 29.2169 13.7635 29.1357 13.3237C29.0543 12.8841 28.9193 12.4569 28.7307 12.0419C29.0378 11.9951 29.3294 11.9624 29.6057 11.9438C29.8822 11.9248 30.1525 11.9154 30.4165 11.9154C32.0868 11.9154 33.435 12.229 34.461 12.8561C35.487 13.4831 36 14.3039 36 15.3188V17H29.2574ZM11.1522 15.1594H24.8478V14.807C24.8778 13.8173 24.2618 13.0152 22.9997 12.4008C21.7374 11.7863 20.0708 11.479 18 11.479C15.9391 11.479 14.275 11.7863 13.0077 12.4008C11.7407 13.0152 11.1222 13.8257 11.1522 14.8322V15.1594ZM5.57765 10.6368C4.92548 10.6368 4.36709 10.3942 3.90248 9.90893C3.43787 9.42395 3.20557 8.83988 3.20557 8.15674C3.20557 7.47684 3.4397 6.89616 3.90796 6.41469C4.37596 5.93322 4.93957 5.69248 5.59878 5.69248C6.25487 5.69248 6.8177 5.93322 7.28726 6.41469C7.75683 6.89616 7.99161 7.48428 7.99161 8.17904C7.99161 8.84434 7.75957 9.42029 7.29548 9.9069C6.83139 10.3935 6.25878 10.6368 5.57765 10.6368ZM30.3993 10.6368C29.7544 10.6368 29.1972 10.3926 28.7276 9.90406C28.258 9.41583 28.0233 8.83502 28.0233 8.16161C28.0233 7.47847 28.259 6.89616 28.7303 6.41469C29.2015 5.93322 29.7644 5.69248 30.4192 5.69248C31.0834 5.69248 31.6478 5.93322 32.1124 6.41469C32.577 6.89616 32.8093 7.48279 32.8093 8.17458C32.8093 8.84934 32.5777 9.4284 32.1143 9.91177C31.651 10.3951 31.0793 10.6368 30.3993 10.6368ZM18.0055 8.42194C16.878 8.42194 15.918 8.01252 15.1255 7.19367C14.333 6.37509 13.9367 5.38092 13.9367 4.21117C13.9367 3.0179 14.3317 2.01779 15.1216 1.21084C15.9117 0.403613 16.8712 0 18 0C19.1512 0 20.1163 0.403073 20.8953 1.20922C21.674 2.01509 22.0633 3.01385 22.0633 4.2055C22.0633 5.37362 21.6745 6.36846 20.8968 7.19002C20.1189 8.0113 19.1551 8.42194 18.0055 8.42194ZM18.0211 6.58176C18.6652 6.58176 19.204 6.35238 19.6376 5.89362C20.0709 5.43512 20.2876 4.86688 20.2876 4.18887C20.2876 3.52168 20.0695 2.96343 19.6333 2.51413C19.1974 2.0651 18.6575 1.84059 18.0137 1.84059C17.3725 1.84059 16.8286 2.06645 16.382 2.51819C15.9356 2.97019 15.7124 3.52979 15.7124 4.19698C15.7124 4.86147 15.9337 5.42499 16.3761 5.88753C16.8188 6.35035 17.3671 6.58176 18.0211 6.58176Z" fill="white"/>
</svg>
