<svg width="30" height="24" viewBox="0 0 30 24" fill="none" xmlns="http://www.w3.org/2000/svg">
<path d="M2.10851 3.01935C2.10851 2.18194 2.79511 1.50309 3.64207 1.50309H22.8115C23.6585 1.50309 24.3451 2.18194 24.3451 3.01935V15.502C24.3451 16.3394 23.6585 17.0183 22.8115 17.0183H3.64207C2.79511 17.0183 2.10851 16.3394 2.10851 15.502V3.01935Z" fill="#003B8D"/>
<path d="M0 20.8001V19.3696H26.4535V20.8001H0ZM3.18668 17.6485C2.69804 17.6485 2.27636 17.4691 1.92166 17.1103C1.56697 16.7514 1.38962 16.3248 1.38962 15.8304V1.81843C1.38962 1.32406 1.56697 0.897345 1.92166 0.538281C2.27636 0.179427 2.69804 0 3.18668 0H23.2668C23.7555 0 24.1771 0.179427 24.5318 0.538281C24.8865 0.897345 25.0639 1.32406 25.0639 1.81843V15.8304C25.0639 16.3248 24.8865 16.7514 24.5318 17.1103C24.1771 17.4691 23.7555 17.6485 23.2668 17.6485H3.18668ZM3.18668 16.2184H23.2668C23.3626 16.2184 23.4504 16.1779 23.5303 16.097C23.6101 16.0162 23.65 15.9273 23.65 15.8304V1.81843C23.65 1.72136 23.6101 1.63239 23.5303 1.5515C23.4504 1.47082 23.3626 1.43048 23.2668 1.43048H3.18668C3.09094 1.43048 3.0031 1.47082 2.92315 1.5515C2.8434 1.63239 2.80353 1.72136 2.80353 1.81843V15.8304C2.80353 15.9273 2.8434 16.0162 2.92315 16.097C3.0031 16.1779 3.09094 16.2184 3.18668 16.2184Z" fill="white"/>
<path d="M13.1789 22.4163V12.9617L14.8402 12.1213H18.1629L21.278 13.3819L22.1086 12.9617L24.393 12.1213H26.885L29.1694 12.9617V22.4163L26.4697 21.9961L23.5623 22.4163L21.278 23.4668L18.9936 22.4163H13.1789Z" fill="#003B8D"/>
<path d="M14.7922 19.6074H15.583L16.0525 18.2693H18.3242L18.8066 19.6074H19.5927L17.626 14.316H16.7507L14.7922 19.6074ZM16.3067 17.5726L17.1677 15.1629H17.2093L18.0703 17.5726H16.3067ZM22.8913 15.7464V14.948C23.3429 14.7358 23.8155 14.5766 24.309 14.4704C24.8027 14.3642 25.3153 14.3112 25.8466 14.3112C26.18 14.3112 26.5038 14.3351 26.8179 14.383C27.132 14.4311 27.4473 14.4944 27.7636 14.5729V15.3196C27.4527 15.2097 27.1435 15.13 26.8362 15.0806C26.529 15.031 26.1991 15.0062 25.8466 15.0062C25.3153 15.0062 24.8006 15.07 24.3026 15.1976C23.8048 15.3253 23.3343 15.5082 22.8913 15.7464ZM22.8913 20.3524V19.525C23.3322 19.317 23.8035 19.1611 24.3051 19.0571C24.8067 18.9531 25.3205 18.901 25.8466 18.901C26.18 18.901 26.5038 18.9251 26.8179 18.9731C27.132 19.021 27.4473 19.0842 27.7636 19.1628V19.9095C27.4527 19.7997 27.1435 19.72 26.8362 19.6704C26.529 19.6208 26.1991 19.5961 25.8466 19.5961C25.3153 19.5961 24.8006 19.6604 24.3026 19.7891C23.8048 19.9179 23.3343 20.1056 22.8913 20.3524ZM22.8913 18.0575V17.2429C23.3429 17.0307 23.8155 16.8715 24.309 16.7654C24.8027 16.6592 25.3153 16.6061 25.8466 16.6061C26.18 16.6061 26.5038 16.6301 26.8179 16.678C27.132 16.726 27.4473 16.7893 27.7636 16.8679V17.6146C27.4527 17.5046 27.1435 17.4249 26.8362 17.3755C26.529 17.3259 26.1991 17.3011 25.8466 17.3011C25.3153 17.3011 24.8006 17.3676 24.3026 17.5007C23.8048 17.6338 23.3343 17.8194 22.8913 18.0575ZM16.5239 21.4788C17.2789 21.4788 18.0134 21.5691 18.7275 21.7496C19.4416 21.93 20.1458 22.2061 20.8401 22.5778V13.8086C20.2171 13.3615 19.5315 13.0197 18.7834 12.7831C18.0352 12.5467 17.2821 12.4284 16.5239 12.4284C16.0033 12.4284 15.5222 12.4801 15.0806 12.5835C14.6391 12.6869 14.1703 12.8285 13.6741 13.0085C13.6101 13.0301 13.5649 13.0611 13.5383 13.1014C13.5117 13.1419 13.4984 13.1863 13.4984 13.2348V21.7715C13.4984 21.8415 13.525 21.894 13.5782 21.929C13.6315 21.964 13.69 21.9708 13.7539 21.9492C14.1086 21.7908 14.5287 21.6728 15.0144 21.5952C15.4999 21.5176 16.0031 21.4788 16.5239 21.4788ZM21.7827 22.5778C22.4802 22.2061 23.1719 21.93 23.8578 21.7496C24.5436 21.5691 25.2683 21.4788 26.0319 21.4788C26.5527 21.4788 27.0615 21.5154 27.5582 21.5887C28.0551 21.6621 28.4697 21.7553 28.802 21.8683C28.8658 21.8953 28.9243 21.8913 28.9776 21.8563C29.0308 21.8213 29.0574 21.7661 29.0574 21.6906V13.2348C29.0574 13.1863 29.0441 13.1433 29.0175 13.1056C28.9909 13.0678 28.9457 13.0354 28.8817 13.0085C28.4164 12.8028 27.9565 12.6546 27.5022 12.5642C27.0476 12.4737 26.5575 12.4284 26.0319 12.4284C25.2683 12.4284 24.5237 12.5467 23.798 12.7831C23.0721 13.0197 22.4004 13.3615 21.7827 13.8086V22.5778ZM21.3074 24C20.6041 23.5001 19.8451 23.116 19.0303 22.8478C18.2155 22.5794 17.3801 22.4452 16.5239 22.4452C16.0744 22.4452 15.633 22.4922 15.1996 22.586C14.7662 22.6797 14.3311 22.8014 13.8944 22.9512C13.5746 23.0945 13.2716 23.0641 12.9853 22.86C12.699 22.6559 12.5558 22.3717 12.5558 22.0074V13.1766C12.5558 12.9557 12.6096 12.7526 12.7172 12.5673C12.8247 12.382 12.9808 12.2425 13.1853 12.1488C13.7082 11.9171 14.2505 11.7469 14.8121 11.638C15.3738 11.5292 15.9444 11.4748 16.5239 11.4748C17.3849 11.4748 18.2208 11.5966 19.0316 11.8402C19.8422 12.0836 20.6022 12.4504 21.3115 12.9407C22.007 12.4504 22.7556 12.0836 23.5575 11.8402C24.3594 11.5966 25.1842 11.4748 26.0319 11.4748C26.6085 11.4748 27.1763 11.5292 27.7352 11.638C28.2941 11.7469 28.835 11.9171 29.3579 12.1488C29.5622 12.2414 29.7203 12.3806 29.8322 12.5665C29.9441 12.7523 30 12.9557 30 13.1766V22.0074C30 22.3873 29.8456 22.6791 29.5367 22.8829C29.2278 23.0868 28.9158 23.1042 28.6005 22.935C28.1831 22.782 27.7598 22.6622 27.3306 22.5755C26.9014 22.4887 26.4685 22.4452 26.0319 22.4452C25.1743 22.4452 24.3484 22.5815 23.554 22.8541C22.7597 23.1268 22.0108 23.5088 21.3074 24Z" fill="white"/>
</svg>
