<svg width="32" height="32" viewBox="0 0 32 32" fill="none" xmlns="http://www.w3.org/2000/svg">
<mask id="mask0_4698_4193" style="mask-type:alpha" maskUnits="userSpaceOnUse" x="0" y="0" width="32" height="32">
<rect width="32" height="32" fill="#D9D9D9"/>
</mask>
<g mask="url(#mask0_4698_4193)">
<path d="M27.6877 14.6313V25.257C27.6877 25.9305 27.4544 26.5007 26.9877 26.9673C26.521 27.434 25.951 27.6673 25.2777 27.6673H6.76471C6.09137 27.6673 5.52137 27.434 5.05471 26.9673C4.58804 26.5007 4.35471 25.9305 4.35471 25.257V14.6057C3.81782 14.1648 3.41482 13.5925 3.14571 12.889C2.87637 12.1857 2.87082 11.4263 3.12904 10.611L4.47771 6.20565C4.65549 5.64499 4.95715 5.19287 5.38271 4.84932C5.80849 4.50576 6.31704 4.33398 6.90837 4.33398H25.1084C25.6999 4.33398 26.205 4.4981 26.6237 4.82632C27.0426 5.15454 27.3477 5.60587 27.539 6.18032L28.9134 10.611C29.1716 11.4263 29.166 12.1831 28.8967 12.8813C28.6276 13.5798 28.2246 14.1631 27.6877 14.6313ZM18.9547 13.6673C19.6829 13.6673 20.2304 13.4447 20.597 12.9993C20.9637 12.554 21.1137 12.0758 21.047 11.5647L20.2367 6.33398H17.021V11.6007C17.021 12.1613 17.2108 12.646 17.5904 13.0547C17.9699 13.4631 18.4247 13.6673 18.9547 13.6673ZM12.9547 13.6673C13.5683 13.6673 14.066 13.4631 14.448 13.0547C14.8303 12.646 15.0214 12.1613 15.0214 11.6007V6.33398H11.8057L10.9957 11.616C10.9237 12.0895 11.0724 12.5499 11.4417 12.997C11.811 13.4439 12.3154 13.6673 12.9547 13.6673ZM7.02137 13.6673C7.51537 13.6673 7.94015 13.4951 8.29571 13.1507C8.65126 12.8062 8.87093 12.3733 8.95471 11.852L9.73904 6.33398H6.90837C6.76304 6.33398 6.64771 6.36598 6.56237 6.42998C6.47682 6.49421 6.41271 6.59043 6.37004 6.71865L5.08771 11.057C4.91171 11.6297 4.99471 12.2079 5.33671 12.7917C5.67849 13.3754 6.24004 13.6673 7.02137 13.6673ZM25.0214 13.6673C25.7427 13.6673 26.2948 13.384 26.6777 12.8173C27.0606 12.2507 27.1529 11.6639 26.9547 11.057L25.6057 6.69299C25.563 6.56476 25.499 6.47287 25.4137 6.41732C25.3282 6.36176 25.2127 6.33398 25.0674 6.33398H22.3034L23.0877 11.852C23.1715 12.3733 23.3912 12.8062 23.7467 13.1507C24.1023 13.4951 24.5272 13.6673 25.0214 13.6673ZM6.76471 25.6673H25.2777C25.3973 25.6673 25.4955 25.6289 25.5724 25.552C25.6495 25.4751 25.688 25.3768 25.688 25.257V15.5493C25.5427 15.6024 25.4213 15.6353 25.3237 15.648C25.2264 15.6609 25.1256 15.6673 25.0214 15.6673C24.4214 15.6673 23.8936 15.5588 23.438 15.3417C22.9825 15.1245 22.5409 14.7767 22.1134 14.298C21.7392 14.7151 21.2965 15.0477 20.7854 15.2957C20.2743 15.5434 19.6914 15.6673 19.0367 15.6673C18.4709 15.6673 17.9376 15.5498 17.4367 15.3147C16.9358 15.0798 16.464 14.7409 16.0214 14.298C15.6094 14.7409 15.1427 15.0798 14.6214 15.3147C14.0998 15.5498 13.5716 15.6673 13.0367 15.6673C12.4349 15.6673 11.8708 15.5583 11.3444 15.3403C10.8179 15.1223 10.3547 14.7749 9.95471 14.298C9.39382 14.8587 8.87704 15.2271 8.40437 15.4033C7.93193 15.5793 7.47093 15.6673 7.02137 15.6673C6.91693 15.6673 6.80915 15.6609 6.69804 15.648C6.58693 15.6353 6.47237 15.6024 6.35437 15.5493V25.257C6.35437 25.3768 6.39293 25.4751 6.47004 25.552C6.54693 25.6289 6.64515 25.6673 6.76471 25.6673Z" fill="white"/>
</g>
</svg>
