<svg width="60" height="60" viewBox="0 0 60 60" fill="none" xmlns="http://www.w3.org/2000/svg">
<rect width="60" height="60" rx="30" fill="#E3F2FD"/>
<mask id="mask0_7332_3610" style="mask-type:alpha" maskUnits="userSpaceOnUse" x="14" y="14" width="32" height="32">
<rect x="14" y="14" width="32" height="32" fill="#D9D9D9"/>
</mask>
<g mask="url(#mask0_7332_3610)">
<path d="M20.6662 42C19.9328 42 19.3051 41.7389 18.7828 41.2167C18.2606 40.6944 17.9995 40.0667 17.9995 39.3333V20.6667C17.9995 19.9333 18.2606 19.3056 18.7828 18.7833C19.3051 18.2611 19.9328 18 20.6662 18H39.3328C40.0662 18 40.694 18.2611 41.2162 18.7833C41.7384 19.3056 41.9995 19.9333 41.9995 20.6667V29.6C41.5773 29.4 41.144 29.2278 40.6995 29.0833C40.2551 28.9389 39.7995 28.8333 39.3328 28.7667V20.6667H20.6662V39.3333H28.7328C28.7995 39.8222 28.9051 40.2889 29.0495 40.7333C29.194 41.1778 29.3662 41.6 29.5662 42H20.6662ZM20.6662 39.3333V20.6667V28.7667V28.6667V39.3333ZM23.3328 36.6667H28.7662C28.8328 36.2 28.9384 35.7444 29.0828 35.3C29.2273 34.8556 29.3884 34.4222 29.5662 34H23.3328V36.6667ZM23.3328 31.3333H31.4662C32.1773 30.6667 32.9717 30.1111 33.8495 29.6667C34.7273 29.2222 35.6662 28.9222 36.6662 28.7667V28.6667H23.3328V31.3333ZM23.3328 26H36.6662V23.3333H23.3328V26ZM37.9995 44.6667C36.1551 44.6667 34.5828 44.0167 33.2828 42.7167C31.9828 41.4167 31.3328 39.8444 31.3328 38C31.3328 36.1556 31.9828 34.5833 33.2828 33.2833C34.5828 31.9833 36.1551 31.3333 37.9995 31.3333C39.844 31.3333 41.4162 31.9833 42.7162 33.2833C44.0162 34.5833 44.6662 36.1556 44.6662 38C44.6662 39.8444 44.0162 41.4167 42.7162 42.7167C41.4162 44.0167 39.844 44.6667 37.9995 44.6667ZM37.3328 42H38.6662V38.6667H41.9995V37.3333H38.6662V34H37.3328V37.3333H33.9995V38.6667H37.3328V42Z" fill="#0051A8"/>
</g>
</svg>
