<svg width="60" height="60" viewBox="0 0 60 60" fill="none" xmlns="http://www.w3.org/2000/svg">
<rect width="60" height="60" rx="30" fill="#E3F2FD"/>
<mask id="mask0_7332_3610" style="mask-type:alpha" maskUnits="userSpaceOnUse" x="15" y="15" width="30" height="30">
<rect x="15" y="15" width="30" height="30" fill="#D9D9D9"/>
</mask>
<g mask="url(#mask0_7332_3610)">
<path d="M17.5 45V40H42.5V45H17.5ZM22.5 35H24.25L34 25.2812L32.2188 23.5L22.5 33.25V35ZM20 37.5V32.1875L34 18.2187C34.2292 17.9896 34.4948 17.8125 34.7969 17.6875C35.099 17.5625 35.4167 17.5 35.75 17.5C36.0833 17.5 36.4062 17.5625 36.7188 17.6875C37.0312 17.8125 37.3125 18 37.5625 18.25L39.2813 20C39.5313 20.2292 39.7135 20.5 39.8281 20.8125C39.9427 21.125 40 21.4479 40 21.7812C40 22.0937 39.9427 22.401 39.8281 22.7031C39.7135 23.0052 39.5313 23.2813 39.2813 23.5313L25.3125 37.5H20Z" fill="#003B8D"/>
</g>
</svg>
