<svg width="60" height="60" viewBox="0 0 60 60" fill="none" xmlns="http://www.w3.org/2000/svg">
<rect width="60" height="60" rx="30" fill="#E3F2FD"/>
<mask id="mask0_7332_3610" style="mask-type:alpha" maskUnits="userSpaceOnUse" x="15" y="15" width="30" height="30">
<rect x="15" y="15" width="30" height="30" fill="#D9D9D9"/>
</mask>
<g mask="url(#mask0_7332_3610)">
<path d="M32.5937 29.6563C34.1146 28.5313 35.3021 27.2969 36.1562 25.9531C37.0104 24.6094 37.4375 23.2708 37.4375 21.9375C37.4375 21.2708 37.3281 20.7812 37.1094 20.4688C36.8906 20.1562 36.5937 20 36.2187 20C35.2396 20 34.375 20.8281 33.625 22.4844C32.875 24.1406 32.5 26.0104 32.5 28.0938C32.5 28.3854 32.5052 28.6615 32.5156 28.9219C32.526 29.1823 32.5521 29.4271 32.5937 29.6563ZM18.75 41.25V38.75H21.25V41.25H18.75ZM23.75 41.25V38.75H26.25V41.25H23.75ZM28.75 41.25V38.75H31.25V41.25H28.75ZM33.75 41.25V38.75H36.25V41.25H33.75ZM38.75 41.25V38.75H41.25V41.25H38.75ZM19.25 36.25L17.5 34.5L19.5 32.5L17.5 30.5L19.25 28.75L21.25 30.75L23.25 28.75L25 30.5L23 32.5L25 34.5L23.25 36.25L21.25 34.25L19.25 36.25ZM34.3125 35C33.6875 35 33.1146 34.8802 32.5937 34.6406C32.0729 34.401 31.625 34.0104 31.25 33.4688C30.7292 33.7604 30.1927 34.0208 29.6406 34.25C29.0885 34.4792 28.5208 34.7083 27.9375 34.9375L27.0625 32.5937C27.6458 32.3854 28.2031 32.1615 28.7344 31.9219C29.2656 31.6823 29.7812 31.4271 30.2812 31.1563C30.1771 30.6979 30.099 30.1979 30.0469 29.6563C29.9948 29.1146 29.9687 28.5312 29.9687 27.9062C29.9687 24.9062 30.5625 22.4219 31.75 20.4531C32.9375 18.4844 34.4271 17.5 36.2187 17.5C37.3021 17.5 38.1875 17.901 38.875 18.7031C39.5625 19.5052 39.9062 20.625 39.9062 22.0625C39.9062 23.8542 39.3385 25.625 38.2031 27.375C37.0677 29.125 35.4896 30.6979 33.4687 32.0938C33.6146 32.2396 33.7656 32.349 33.9219 32.4219C34.0781 32.4948 34.2396 32.5313 34.4062 32.5313C34.9479 32.5313 35.5781 32.1875 36.2969 31.5C37.0156 30.8125 37.6667 29.9063 38.25 28.7813L40.5312 29.8438C40.3854 30.1979 40.2708 30.625 40.1875 31.125C40.1042 31.625 40.1146 32.0625 40.2187 32.4375C40.4271 32.3333 40.6719 32.1563 40.9531 31.9063C41.2344 31.6563 41.5208 31.3438 41.8125 30.9688L43.7812 32.5C43.2396 33.25 42.6146 33.8542 41.9062 34.3125C41.1979 34.7708 40.5417 35 39.9375 35C39.5 35 39.1094 34.8698 38.7656 34.6094C38.4219 34.349 38.1354 33.9479 37.9062 33.4063C37.3229 33.9271 36.7292 34.3229 36.125 34.5938C35.5208 34.8646 34.9167 35 34.3125 35Z" fill="#003B8D"/>
</g>
</svg>
