<svg width="60" height="60" viewBox="0 0 60 60" fill="none" xmlns="http://www.w3.org/2000/svg">
<rect width="60" height="60" rx="30" fill="#E3F2FD"/>
<mask id="mask0_7332_3610" style="mask-type:alpha" maskUnits="userSpaceOnUse" x="14" y="14" width="32" height="32">
<rect x="14" y="14" width="32" height="32" fill="#D9D9D9"/>
</mask>
<g mask="url(#mask0_7332_3610)">
<path d="M20.8002 35.4C20.3113 34.5555 19.9446 33.6889 19.7002 32.8C19.4557 31.9111 19.3335 31 19.3335 30.0666C19.3335 27.0889 20.3668 24.5555 22.4335 22.4666C24.5002 20.3778 27.0224 19.3333 30.0002 19.3333H30.2335L28.1002 17.2L29.9668 15.3333L35.3002 20.6666L29.9668 26L28.1002 24.1333L30.2335 22H30.0002C27.7779 22 25.8891 22.7833 24.3335 24.35C22.7779 25.9166 22.0002 27.8222 22.0002 30.0666C22.0002 30.6444 22.0668 31.2111 22.2002 31.7666C22.3335 32.3222 22.5335 32.8666 22.8002 33.4L20.8002 35.4ZM30.0335 44.6666L24.7002 39.3333L30.0335 34L31.9002 35.8666L29.7668 38H30.0002C32.2224 38 34.1113 37.2166 35.6668 35.65C37.2224 34.0833 38.0002 32.1778 38.0002 29.9333C38.0002 29.3555 37.9335 28.7889 37.8002 28.2333C37.6668 27.6778 37.4668 27.1333 37.2002 26.6L39.2002 24.6C39.6891 25.4444 40.0557 26.3111 40.3002 27.2C40.5446 28.0889 40.6668 29 40.6668 29.9333C40.6668 32.9111 39.6335 35.4444 37.5668 37.5333C35.5002 39.6222 32.9779 40.6666 30.0002 40.6666H29.7668L31.9002 42.8L30.0335 44.6666Z" fill="#003B8D"/>
</g>
</svg>
