<?xml version="1.0" encoding="utf-8"?>
<!-- Generator: Adobe Illustrator 28.3.0, SVG Export Plug-In . SVG Version: 6.00 Build 0)  -->
<svg version="1.1" id="Capa_1" xmlns="http://www.w3.org/2000/svg" xmlns:xlink="http://www.w3.org/1999/xlink" x="0px" y="0px"
	 viewBox="0 0 300 300" style="enable-background:new 0 0 300 300;" xml:space="preserve">
<style type="text/css">
	.st0{fill:#E73439;}
	.st1{fill:#0063AF;}
</style>
<g>
	<path class="st0" d="M280.72,182.94h-0.01c21.36-44.13-2.86-107.52-88.23-103.25c0,0-78.04-2.11-86.97,51.13
		C96.6,184.06,128.38,231.5,219.8,223.6c2.66-0.23,5.25-0.59,7.76-1.04v0.01c0.11-0.02,0.21-0.03,0.33-0.06
		c0.14-0.02,0.28-0.05,0.43-0.08c25.12-5.21,42.78,5.26,50.01,12.37c7.31,7.19,3.54-12.68,0-27.32
		C275.89,197.42,276.81,192.77,280.72,182.94z"/>
	<path class="st1" d="M12.85,235.13c-0.13,0.19-0.24,0.39-0.35,0.59c0,0,0,0,0,0l0,0c-0.52,0.94-0.83,2.01-0.83,3.16
		c0,3.59,1.67,5.87,5.27,5.87c0.97,0,1.88-0.23,2.71-0.61c0,0,0.01,0.01,0.01,0.01c26.16-9.73,47.35-14.92,58.47-6.36
		c0-0.02,0-0.04,0-0.07c24.49,21.26,58.94,33.88,100.93,36.7c0.49,0.03,0.99,0.04,1.48,0.04c10.76,0.01,19.84-7.86,20.6-18.17
		c0.81-10.77-7.77-20.12-19.16-20.89c-38.63-2.59-67.01-14.37-84.36-35.01c-20.79-24.74-20.76-56.11-17.08-78.08
		C90.55,62.52,185.1,64.41,186.05,64.4l0.84,0.03l0.84-0.04c16.73-0.84,32.18,0.27,45.93,3.31c11.12,2.46,22.24-4.08,24.84-14.59
		c2.6-10.52-4.31-21.04-15.43-23.5c-17.33-3.83-36.44-5.28-56.78-4.32c-5.59-0.06-34.07,0.1-64.24,9.06
		C74.77,48.39,46.3,76.69,39.68,116.19c-3.85,23.04-2.83,45.03,2.73,64.82C42.39,181,42.36,181,42.36,181s3.26,14.21-12.73,32.63
		c-6.22,7.16-10.87,13.78-15.91,20.46"/>
</g>
</svg>
